<svg id="visual" viewBox="0 0 900 600" width="900" height="600" xmlns="http://www.w3.org/2000/svg" xmlns:xlink="http://www.w3.org/1999/xlink" version="1.1"><path d="M0 556L39 556L39 566L78 566L78 583L117 583L117 571L157 571L157 570L196 570L196 559L235 559L235 574L274 574L274 562L313 562L313 568L352 568L352 575L391 575L391 565L430 565L430 569L470 569L470 569L509 569L509 555L548 555L548 565L587 565L587 577L626 577L626 572L665 572L665 560L704 560L704 566L743 566L743 578L783 578L783 570L822 570L822 572L861 572L861 567L900 567L900 560L900 601L900 601L861 601L861 601L822 601L822 601L783 601L783 601L743 601L743 601L704 601L704 601L665 601L665 601L626 601L626 601L587 601L587 601L548 601L548 601L509 601L509 601L470 601L470 601L430 601L430 601L391 601L391 601L352 601L352 601L313 601L313 601L274 601L274 601L235 601L235 601L196 601L196 601L157 601L157 601L117 601L117 601L78 601L78 601L39 601L39 601L0 601Z" fill="#1c1c1c"></path></svg>